# xmcd
#
# Track frame offsets: 
#        150
#        29726
#        53855
#        78486
#        93624
#        123743
#        141773
#        162823
#        191708
#        215733
#        242101
#        272857
#        292554
#        313155
#        329416
#
# Disc length: 4455 seconds
#
# Revision: 3
# Processed by: cddbd v1.5.2PL0 Copyright (c) Steve Scherf et al.
# Submitted via: ExactAudioCopy v1.0b3
#
DISCID=e911650f
DTITLE=Jack Teagarden - The Complete Roulette Sessions Disc 2
DYEAR=1959
DGENRE=Jazz
TTITLE0=Original Dixieland One-Step 
TTITLE1=St. James Infirmary (Instrumental Version)
TTITLE2=Royal Garden Blues 
TTITLE3=Star Dust 
TTITLE4=Jada 
TTITLE5=Atlanta Blues 
TTITLE6=(Back Home Again In) Indiana 
TTITLE7=St. James Infirmary 
TTITLE8=A Hundred Years From Today 
TTITLE9=St. Louis Blues 
TTITLE10=When The Saints Go Marching In 
TTITLE11=Ol' Man River 
TTITLE12=Lulu's Back In Town 
TTITLE13=Riverboat Blues 
TTITLE14=I Gotta Right To Sing The Blues (theme)
EXTD=E14=I Gotta Right To Sing The Blues EXTD=YEAR: 1959
EXTT0=
EXTT1=
EXTT2=
EXTT3=
EXTT4=
EXTT5=
EXTT6=
EXTT7=
EXTT8=
EXTT9=
EXTT10=
EXTT11=
EXTT12=
EXTT13=
EXTT14=
PLAYORDER=
